# xmcd
# Copyright (c) 1998 CDDB Inc.
#
# Track frame offsets:
#	183
#	11560
#	24095
#	37208
#	48158
#	58443
#	69990
#	81785
#	93898
#	104868
#	117175
#	128770
#
# Disc length: 1873 seconds
#
# Revision: 1
# Processed by: cddbd v1.4b42PL1 Copyright (c) Steve Scherf et al.
# Submitted via: audiograbber 1.70
#
DISCID=9c074f0c
DTITLE=Brook Benton - Endlessly
DYEAR=1900
DGENRE=
TTITLE0=It's Just A Matter Of Time
TTITLE1=The Boll Weevil Song
TTITLE2=Baby (You Got What It Takes)
TTITLE3=A Rockin' Good Way
TTITLE4=Life To Me
TTITLE5=So Many Ways
TTITLE6=Hotel Happiness
TTITLE7=Kiddio
TTITLE8=Endlessly
TTITLE9=Revenge
TTITLE10=The Same One
TTITLE11=Think Twice
EXTD=OverDriver
EXTT0=
EXTT1=
EXTT2=
EXTT3=
EXTT4=
EXTT5=
EXTT6=
EXTT7=
EXTT8=
EXTT9=
EXTT10=
EXTT11=
PLAYORDER=
